<svg width="364" height="90" viewBox="0 0 364 90" fill="none" xmlns="http://www.w3.org/2000/svg">
<mask id="path-1-outside-1_2_28" maskUnits="userSpaceOnUse" x="0.615051" y="0.193176" width="364" height="90" fill="black">
<rect fill="white" x="0.615051" y="0.193176" width="364" height="90"/>
<path d="M5.61505 9.18181H23.8196L43.0469 56.0909H43.8651L63.0923 9.18181H81.2969V79H66.9787V33.5568H66.3991L48.331 78.6591H38.581L20.5128 33.3864H19.9332V79H5.61505V9.18181Z"/>
<path d="M116.845 80.0227C111.55 80.0227 106.97 78.8977 103.107 76.6477C99.2656 74.375 96.2997 71.2159 94.2088 67.1705C92.1179 63.1023 91.0724 58.3864 91.0724 53.0227C91.0724 47.6136 92.1179 42.8864 94.2088 38.8409C96.2997 34.7727 99.2656 31.6136 103.107 29.3636C106.97 27.0909 111.55 25.9545 116.845 25.9545C122.141 25.9545 126.709 27.0909 130.55 29.3636C134.413 31.6136 137.391 34.7727 139.482 38.8409C141.572 42.8864 142.618 47.6136 142.618 53.0227C142.618 58.3864 141.572 63.1023 139.482 67.1705C137.391 71.2159 134.413 74.375 130.55 76.6477C126.709 78.8977 122.141 80.0227 116.845 80.0227ZM116.913 68.7727C119.322 68.7727 121.334 68.0909 122.947 66.7273C124.561 65.3409 125.777 63.4545 126.595 61.0682C127.436 58.6818 127.857 55.9659 127.857 52.9205C127.857 49.875 127.436 47.1591 126.595 44.7727C125.777 42.3864 124.561 40.5 122.947 39.1136C121.334 37.7273 119.322 37.0341 116.913 37.0341C114.482 37.0341 112.436 37.7273 110.777 39.1136C109.141 40.5 107.902 42.3864 107.061 44.7727C106.243 47.1591 105.834 49.875 105.834 52.9205C105.834 55.9659 106.243 58.6818 107.061 61.0682C107.902 63.4545 109.141 65.3409 110.777 66.7273C112.436 68.0909 114.482 68.7727 116.913 68.7727Z"/>
<path d="M199.192 26.6364L180.885 79H164.521L146.214 26.6364H161.555L172.43 64.1023H172.976L183.817 26.6364H199.192Z"/>
<path d="M206.624 79V26.6364H221.146V79H206.624ZM213.919 19.8864C211.76 19.8864 209.908 19.1705 208.362 17.7386C206.839 16.2841 206.078 14.5455 206.078 12.5227C206.078 10.5227 206.839 8.80681 208.362 7.375C209.908 5.92045 211.76 5.19318 213.919 5.19318C216.078 5.19318 217.919 5.92045 219.442 7.375C220.987 8.80681 221.76 10.5227 221.76 12.5227C221.76 14.5455 220.987 16.2841 219.442 17.7386C217.919 19.1705 216.078 19.8864 213.919 19.8864Z"/>
<path d="M256.643 80.0227C251.257 80.0227 246.621 78.9318 242.734 76.75C238.871 74.5455 235.893 71.4318 233.803 67.4091C231.712 63.3636 230.666 58.5795 230.666 53.0568C230.666 47.6705 231.712 42.9432 233.803 38.875C235.893 34.8068 238.837 31.6364 242.632 29.3636C246.45 27.0909 250.928 25.9545 256.064 25.9545C259.518 25.9545 262.734 26.5114 265.712 27.625C268.712 28.7159 271.325 30.3636 273.553 32.5682C275.803 34.7727 277.553 37.5455 278.803 40.8864C280.053 44.2045 280.678 48.0909 280.678 52.5455V56.5341H236.462V47.5341H267.007C267.007 45.4432 266.553 43.5909 265.643 41.9773C264.734 40.3636 263.473 39.1023 261.859 38.1932C260.268 37.2614 258.416 36.7955 256.303 36.7955C254.098 36.7955 252.143 37.3068 250.439 38.3295C248.757 39.3295 247.439 40.6818 246.484 42.3864C245.53 44.0682 245.041 45.9432 245.018 48.0114V56.5682C245.018 59.1591 245.496 61.3977 246.45 63.2841C247.428 65.1705 248.803 66.625 250.575 67.6477C252.348 68.6705 254.45 69.1818 256.882 69.1818C258.496 69.1818 259.973 68.9545 261.314 68.5C262.655 68.0455 263.803 67.3636 264.757 66.4545C265.712 65.5455 266.439 64.4318 266.939 63.1136L280.371 64C279.689 67.2273 278.291 70.0455 276.178 72.4545C274.087 74.8409 271.382 76.7045 268.064 78.0455C264.768 79.3636 260.962 80.0227 256.643 80.0227Z"/>
<path d="M316.78 54.7273H329.325L335.632 62.8409L341.837 70.0682L353.53 84.7273H339.757L331.712 74.8409L327.587 68.9773L316.78 54.7273ZM354.587 44.0909C354.587 51.7045 353.143 58.1818 350.257 63.5227C347.393 68.8636 343.484 72.9432 338.53 75.7614C333.598 78.5568 328.053 79.9545 321.893 79.9545C315.689 79.9545 310.121 78.5455 305.189 75.7273C300.257 72.9091 296.359 68.8295 293.496 63.4886C290.632 58.1477 289.2 51.6818 289.2 44.0909C289.2 36.4773 290.632 30 293.496 24.6591C296.359 19.3182 300.257 15.25 305.189 12.4545C310.121 9.63636 315.689 8.22727 321.893 8.22727C328.053 8.22727 333.598 9.63636 338.53 12.4545C343.484 15.25 347.393 19.3182 350.257 24.6591C353.143 30 354.587 36.4773 354.587 44.0909ZM339.621 44.0909C339.621 39.1591 338.882 35 337.405 31.6136C335.95 28.2273 333.893 25.6591 331.234 23.9091C328.575 22.1591 325.462 21.2841 321.893 21.2841C318.325 21.2841 315.212 22.1591 312.553 23.9091C309.893 25.6591 307.825 28.2273 306.348 31.6136C304.893 35 304.166 39.1591 304.166 44.0909C304.166 49.0227 304.893 53.1818 306.348 56.5682C307.825 59.9545 309.893 62.5227 312.553 64.2727C315.212 66.0227 318.325 66.8977 321.893 66.8977C325.462 66.8977 328.575 66.0227 331.234 64.2727C333.893 62.5227 335.95 59.9545 337.405 56.5682C338.882 53.1818 339.621 49.0227 339.621 44.0909Z"/>
</mask>
<path d="M5.61505 9.18181H23.8196L43.0469 56.0909H43.8651L63.0923 9.18181H81.2969V79H66.9787V33.5568H66.3991L48.331 78.6591H38.581L20.5128 33.3864H19.9332V79H5.61505V9.18181Z" stroke="#DDCCDD" stroke-opacity="0.592157" stroke-width="10" mask="url(#path-1-outside-1_2_28)"/>
<path d="M116.845 80.0227C111.55 80.0227 106.97 78.8977 103.107 76.6477C99.2656 74.375 96.2997 71.2159 94.2088 67.1705C92.1179 63.1023 91.0724 58.3864 91.0724 53.0227C91.0724 47.6136 92.1179 42.8864 94.2088 38.8409C96.2997 34.7727 99.2656 31.6136 103.107 29.3636C106.97 27.0909 111.55 25.9545 116.845 25.9545C122.141 25.9545 126.709 27.0909 130.55 29.3636C134.413 31.6136 137.391 34.7727 139.482 38.8409C141.572 42.8864 142.618 47.6136 142.618 53.0227C142.618 58.3864 141.572 63.1023 139.482 67.1705C137.391 71.2159 134.413 74.375 130.55 76.6477C126.709 78.8977 122.141 80.0227 116.845 80.0227ZM116.913 68.7727C119.322 68.7727 121.334 68.0909 122.947 66.7273C124.561 65.3409 125.777 63.4545 126.595 61.0682C127.436 58.6818 127.857 55.9659 127.857 52.9205C127.857 49.875 127.436 47.1591 126.595 44.7727C125.777 42.3864 124.561 40.5 122.947 39.1136C121.334 37.7273 119.322 37.0341 116.913 37.0341C114.482 37.0341 112.436 37.7273 110.777 39.1136C109.141 40.5 107.902 42.3864 107.061 44.7727C106.243 47.1591 105.834 49.875 105.834 52.9205C105.834 55.9659 106.243 58.6818 107.061 61.0682C107.902 63.4545 109.141 65.3409 110.777 66.7273C112.436 68.0909 114.482 68.7727 116.913 68.7727Z" stroke="#DDCCDD" stroke-opacity="0.592157" stroke-width="10" mask="url(#path-1-outside-1_2_28)"/>
<path d="M199.192 26.6364L180.885 79H164.521L146.214 26.6364H161.555L172.43 64.1023H172.976L183.817 26.6364H199.192Z" stroke="#DDCCDD" stroke-opacity="0.592157" stroke-width="10" mask="url(#path-1-outside-1_2_28)"/>
<path d="M206.624 79V26.6364H221.146V79H206.624ZM213.919 19.8864C211.76 19.8864 209.908 19.1705 208.362 17.7386C206.839 16.2841 206.078 14.5455 206.078 12.5227C206.078 10.5227 206.839 8.80681 208.362 7.375C209.908 5.92045 211.76 5.19318 213.919 5.19318C216.078 5.19318 217.919 5.92045 219.442 7.375C220.987 8.80681 221.76 10.5227 221.76 12.5227C221.76 14.5455 220.987 16.2841 219.442 17.7386C217.919 19.1705 216.078 19.8864 213.919 19.8864Z" stroke="#DDCCDD" stroke-opacity="0.592157" stroke-width="10" mask="url(#path-1-outside-1_2_28)"/>
<path d="M256.643 80.0227C251.257 80.0227 246.621 78.9318 242.734 76.75C238.871 74.5455 235.893 71.4318 233.803 67.4091C231.712 63.3636 230.666 58.5795 230.666 53.0568C230.666 47.6705 231.712 42.9432 233.803 38.875C235.893 34.8068 238.837 31.6364 242.632 29.3636C246.45 27.0909 250.928 25.9545 256.064 25.9545C259.518 25.9545 262.734 26.5114 265.712 27.625C268.712 28.7159 271.325 30.3636 273.553 32.5682C275.803 34.7727 277.553 37.5455 278.803 40.8864C280.053 44.2045 280.678 48.0909 280.678 52.5455V56.5341H236.462V47.5341H267.007C267.007 45.4432 266.553 43.5909 265.643 41.9773C264.734 40.3636 263.473 39.1023 261.859 38.1932C260.268 37.2614 258.416 36.7955 256.303 36.7955C254.098 36.7955 252.143 37.3068 250.439 38.3295C248.757 39.3295 247.439 40.6818 246.484 42.3864C245.53 44.0682 245.041 45.9432 245.018 48.0114V56.5682C245.018 59.1591 245.496 61.3977 246.45 63.2841C247.428 65.1705 248.803 66.625 250.575 67.6477C252.348 68.6705 254.45 69.1818 256.882 69.1818C258.496 69.1818 259.973 68.9545 261.314 68.5C262.655 68.0455 263.803 67.3636 264.757 66.4545C265.712 65.5455 266.439 64.4318 266.939 63.1136L280.371 64C279.689 67.2273 278.291 70.0455 276.178 72.4545C274.087 74.8409 271.382 76.7045 268.064 78.0455C264.768 79.3636 260.962 80.0227 256.643 80.0227Z" stroke="#DDCCDD" stroke-opacity="0.592157" stroke-width="10" mask="url(#path-1-outside-1_2_28)"/>
<path d="M316.78 54.7273H329.325L335.632 62.8409L341.837 70.0682L353.53 84.7273H339.757L331.712 74.8409L327.587 68.9773L316.78 54.7273ZM354.587 44.0909C354.587 51.7045 353.143 58.1818 350.257 63.5227C347.393 68.8636 343.484 72.9432 338.53 75.7614C333.598 78.5568 328.053 79.9545 321.893 79.9545C315.689 79.9545 310.121 78.5455 305.189 75.7273C300.257 72.9091 296.359 68.8295 293.496 63.4886C290.632 58.1477 289.2 51.6818 289.2 44.0909C289.2 36.4773 290.632 30 293.496 24.6591C296.359 19.3182 300.257 15.25 305.189 12.4545C310.121 9.63636 315.689 8.22727 321.893 8.22727C328.053 8.22727 333.598 9.63636 338.53 12.4545C343.484 15.25 347.393 19.3182 350.257 24.6591C353.143 30 354.587 36.4773 354.587 44.0909ZM339.621 44.0909C339.621 39.1591 338.882 35 337.405 31.6136C335.95 28.2273 333.893 25.6591 331.234 23.9091C328.575 22.1591 325.462 21.2841 321.893 21.2841C318.325 21.2841 315.212 22.1591 312.553 23.9091C309.893 25.6591 307.825 28.2273 306.348 31.6136C304.893 35 304.166 39.1591 304.166 44.0909C304.166 49.0227 304.893 53.1818 306.348 56.5682C307.825 59.9545 309.893 62.5227 312.553 64.2727C315.212 66.0227 318.325 66.8977 321.893 66.8977C325.462 66.8977 328.575 66.0227 331.234 64.2727C333.893 62.5227 335.95 59.9545 337.405 56.5682C338.882 53.1818 339.621 49.0227 339.621 44.0909Z" stroke="#DDCCDD" stroke-opacity="0.592157" stroke-width="10" mask="url(#path-1-outside-1_2_28)"/>
</svg>
